<mxfile host="app.diagrams.net" agent="Mozilla/5.0 (Windows NT 10.0; Win64; x64) AppleWebKit/537.36 (KHTML, like Gecko) Chrome/131.0.0.0 Safari/537.36 Edg/131.0.0.0" version="25.0.3">
  <diagram id="C5RBs43oDa-KdzZeNtuy" name="Page-1">
    <mxGraphModel dx="1740" dy="995" grid="1" gridSize="12" guides="1" tooltips="1" connect="1" arrows="1" fold="1" page="1" pageScale="1" pageWidth="1600" pageHeight="900" math="0" shadow="0">
      <root>
        <mxCell id="WIyWlLk6GJQsqaUBKTNV-0" />
        <mxCell id="WIyWlLk6GJQsqaUBKTNV-1" parent="WIyWlLk6GJQsqaUBKTNV-0" />
        <mxCell id="qNqzVhPJE8xCvwRogEjn-1" value="" style="whiteSpace=wrap;html=1;" parent="WIyWlLk6GJQsqaUBKTNV-1" vertex="1">
          <mxGeometry x="30" y="20" width="1650" height="1048" as="geometry" />
        </mxCell>
        <mxCell id="qNqzVhPJE8xCvwRogEjn-2" value="&lt;font style=&quot;font-size: 32px;&quot;&gt;インゲーム&lt;/font&gt;" style="text;html=1;align=left;verticalAlign=middle;whiteSpace=wrap;rounded=0;" parent="WIyWlLk6GJQsqaUBKTNV-1" vertex="1">
          <mxGeometry x="30" y="20" width="170" height="90" as="geometry" />
        </mxCell>
        <mxCell id="qNqzVhPJE8xCvwRogEjn-11" value="EnemyBase" style="swimlane;fontStyle=1;align=center;verticalAlign=top;childLayout=stackLayout;horizontal=1;startSize=26;horizontalStack=0;resizeParent=1;resizeParentMax=0;resizeLast=0;collapsible=1;marginBottom=0;whiteSpace=wrap;html=1;" parent="WIyWlLk6GJQsqaUBKTNV-1" vertex="1">
          <mxGeometry x="1080" y="336" width="228" height="144" as="geometry" />
        </mxCell>
        <mxCell id="qNqzVhPJE8xCvwRogEjn-12" value="+ Hp: float&lt;div&gt;+ Speed:float&lt;/div&gt;&lt;div&gt;+ Bullet: BulletShotBase&lt;/div&gt;" style="text;strokeColor=none;fillColor=none;align=left;verticalAlign=top;spacingLeft=4;spacingRight=4;overflow=hidden;rotatable=0;points=[[0,0.5],[1,0.5]];portConstraint=eastwest;whiteSpace=wrap;html=1;" parent="qNqzVhPJE8xCvwRogEjn-11" vertex="1">
          <mxGeometry y="26" width="228" height="58" as="geometry" />
        </mxCell>
        <mxCell id="qNqzVhPJE8xCvwRogEjn-13" value="" style="line;strokeWidth=1;fillColor=none;align=left;verticalAlign=middle;spacingTop=-1;spacingLeft=3;spacingRight=3;rotatable=0;labelPosition=right;points=[];portConstraint=eastwest;strokeColor=inherit;" parent="qNqzVhPJE8xCvwRogEjn-11" vertex="1">
          <mxGeometry y="84" width="228" height="4" as="geometry" />
        </mxCell>
        <mxCell id="qNqzVhPJE8xCvwRogEjn-14" value="+ Bulletshot(BulletShotBase): void&lt;div&gt;&lt;br&gt;&lt;/div&gt;" style="text;strokeColor=none;fillColor=none;align=left;verticalAlign=top;spacingLeft=4;spacingRight=4;overflow=hidden;rotatable=0;points=[[0,0.5],[1,0.5]];portConstraint=eastwest;whiteSpace=wrap;html=1;" parent="qNqzVhPJE8xCvwRogEjn-11" vertex="1">
          <mxGeometry y="88" width="228" height="56" as="geometry" />
        </mxCell>
        <mxCell id="qNqzVhPJE8xCvwRogEjn-16" value="TimeManager" style="swimlane;fontStyle=1;align=center;verticalAlign=top;childLayout=stackLayout;horizontal=1;startSize=26;horizontalStack=0;resizeParent=1;resizeParentMax=0;resizeLast=0;collapsible=1;marginBottom=0;whiteSpace=wrap;html=1;" parent="WIyWlLk6GJQsqaUBKTNV-1" vertex="1">
          <mxGeometry x="516" y="144" width="228" height="144" as="geometry" />
        </mxCell>
        <mxCell id="qNqzVhPJE8xCvwRogEjn-17" value="+ time: float" style="text;strokeColor=none;fillColor=none;align=left;verticalAlign=top;spacingLeft=4;spacingRight=4;overflow=hidden;rotatable=0;points=[[0,0.5],[1,0.5]];portConstraint=eastwest;whiteSpace=wrap;html=1;" parent="qNqzVhPJE8xCvwRogEjn-16" vertex="1">
          <mxGeometry y="26" width="228" height="58" as="geometry" />
        </mxCell>
        <mxCell id="qNqzVhPJE8xCvwRogEjn-18" value="" style="line;strokeWidth=1;fillColor=none;align=left;verticalAlign=middle;spacingTop=-1;spacingLeft=3;spacingRight=3;rotatable=0;labelPosition=right;points=[];portConstraint=eastwest;strokeColor=inherit;" parent="qNqzVhPJE8xCvwRogEjn-16" vertex="1">
          <mxGeometry y="84" width="228" height="4" as="geometry" />
        </mxCell>
        <mxCell id="qNqzVhPJE8xCvwRogEjn-19" value="+ AddTIme() : float&amp;nbsp;&lt;div&gt;&lt;br&gt;&lt;/div&gt;" style="text;strokeColor=none;fillColor=none;align=left;verticalAlign=top;spacingLeft=4;spacingRight=4;overflow=hidden;rotatable=0;points=[[0,0.5],[1,0.5]];portConstraint=eastwest;whiteSpace=wrap;html=1;" parent="qNqzVhPJE8xCvwRogEjn-16" vertex="1">
          <mxGeometry y="88" width="228" height="56" as="geometry" />
        </mxCell>
        <mxCell id="qNqzVhPJE8xCvwRogEjn-21" value="" style="endArrow=classic;html=1;rounded=0;" parent="WIyWlLk6GJQsqaUBKTNV-1" source="qNqzVhPJE8xCvwRogEjn-16" target="qNqzVhPJE8xCvwRogEjn-60" edge="1">
          <mxGeometry width="50" height="50" relative="1" as="geometry">
            <mxPoint x="804" y="350" as="sourcePoint" />
            <mxPoint x="470" y="252.24902723735408" as="targetPoint" />
          </mxGeometry>
        </mxCell>
        <mxCell id="qNqzVhPJE8xCvwRogEjn-22" value="" style="endArrow=classic;html=1;rounded=0;" parent="WIyWlLk6GJQsqaUBKTNV-1" source="qNqzVhPJE8xCvwRogEjn-16" target="qNqzVhPJE8xCvwRogEjn-35" edge="1">
          <mxGeometry width="50" height="50" relative="1" as="geometry">
            <mxPoint x="900" y="458" as="sourcePoint" />
            <mxPoint x="950" y="408" as="targetPoint" />
          </mxGeometry>
        </mxCell>
        <mxCell id="qNqzVhPJE8xCvwRogEjn-35" value="EnemyManager" style="swimlane;fontStyle=1;align=center;verticalAlign=top;childLayout=stackLayout;horizontal=1;startSize=26;horizontalStack=0;resizeParent=1;resizeParentMax=0;resizeLast=0;collapsible=1;marginBottom=0;whiteSpace=wrap;html=1;" parent="WIyWlLk6GJQsqaUBKTNV-1" vertex="1">
          <mxGeometry x="816" y="168" width="228" height="144" as="geometry" />
        </mxCell>
        <mxCell id="qNqzVhPJE8xCvwRogEjn-36" value="&lt;div&gt;+ timeTible:TimeTible[]&lt;/div&gt;&lt;div&gt;+ nextTible: Timetible&lt;/div&gt;" style="text;strokeColor=none;fillColor=none;align=left;verticalAlign=top;spacingLeft=4;spacingRight=4;overflow=hidden;rotatable=0;points=[[0,0.5],[1,0.5]];portConstraint=eastwest;whiteSpace=wrap;html=1;" parent="qNqzVhPJE8xCvwRogEjn-35" vertex="1">
          <mxGeometry y="26" width="228" height="58" as="geometry" />
        </mxCell>
        <mxCell id="qNqzVhPJE8xCvwRogEjn-37" value="" style="line;strokeWidth=1;fillColor=none;align=left;verticalAlign=middle;spacingTop=-1;spacingLeft=3;spacingRight=3;rotatable=0;labelPosition=right;points=[];portConstraint=eastwest;strokeColor=inherit;" parent="qNqzVhPJE8xCvwRogEjn-35" vertex="1">
          <mxGeometry y="84" width="228" height="4" as="geometry" />
        </mxCell>
        <mxCell id="qNqzVhPJE8xCvwRogEjn-38" value="+ Generate(TimeTible): void&lt;div&gt;+SortTime(TimeTible[]):void&lt;/div&gt;" style="text;strokeColor=none;fillColor=none;align=left;verticalAlign=top;spacingLeft=4;spacingRight=4;overflow=hidden;rotatable=0;points=[[0,0.5],[1,0.5]];portConstraint=eastwest;whiteSpace=wrap;html=1;" parent="qNqzVhPJE8xCvwRogEjn-35" vertex="1">
          <mxGeometry y="88" width="228" height="56" as="geometry" />
        </mxCell>
        <mxCell id="qNqzVhPJE8xCvwRogEjn-39" value="EnemyBoss" style="swimlane;fontStyle=1;align=center;verticalAlign=top;childLayout=stackLayout;horizontal=1;startSize=26;horizontalStack=0;resizeParent=1;resizeParentMax=0;resizeLast=0;collapsible=1;marginBottom=0;whiteSpace=wrap;html=1;" parent="WIyWlLk6GJQsqaUBKTNV-1" vertex="1">
          <mxGeometry x="756" y="744" width="228" height="156" as="geometry" />
        </mxCell>
        <mxCell id="qNqzVhPJE8xCvwRogEjn-40" value="+ Hp: float&lt;div&gt;+ Speed:float&lt;/div&gt;&lt;div&gt;+ Bullet: BulletShotBase[]&lt;/div&gt;&lt;div&gt;+ interval :float()&lt;/div&gt;" style="text;strokeColor=none;fillColor=none;align=left;verticalAlign=top;spacingLeft=4;spacingRight=4;overflow=hidden;rotatable=0;points=[[0,0.5],[1,0.5]];portConstraint=eastwest;whiteSpace=wrap;html=1;" parent="qNqzVhPJE8xCvwRogEjn-39" vertex="1">
          <mxGeometry y="26" width="228" height="70" as="geometry" />
        </mxCell>
        <mxCell id="qNqzVhPJE8xCvwRogEjn-41" value="" style="line;strokeWidth=1;fillColor=none;align=left;verticalAlign=middle;spacingTop=-1;spacingLeft=3;spacingRight=3;rotatable=0;labelPosition=right;points=[];portConstraint=eastwest;strokeColor=inherit;" parent="qNqzVhPJE8xCvwRogEjn-39" vertex="1">
          <mxGeometry y="96" width="228" height="4" as="geometry" />
        </mxCell>
        <mxCell id="qNqzVhPJE8xCvwRogEjn-42" value="+ Bulletshot(BulletShotBase): void&lt;div&gt;+ BulletCange():void&lt;/div&gt;" style="text;strokeColor=none;fillColor=none;align=left;verticalAlign=top;spacingLeft=4;spacingRight=4;overflow=hidden;rotatable=0;points=[[0,0.5],[1,0.5]];portConstraint=eastwest;whiteSpace=wrap;html=1;" parent="qNqzVhPJE8xCvwRogEjn-39" vertex="1">
          <mxGeometry y="100" width="228" height="56" as="geometry" />
        </mxCell>
        <mxCell id="qNqzVhPJE8xCvwRogEjn-43" value="EnemyNormal" style="swimlane;fontStyle=1;align=center;verticalAlign=top;childLayout=stackLayout;horizontal=1;startSize=26;horizontalStack=0;resizeParent=1;resizeParentMax=0;resizeLast=0;collapsible=1;marginBottom=0;whiteSpace=wrap;html=1;" parent="WIyWlLk6GJQsqaUBKTNV-1" vertex="1">
          <mxGeometry x="1236" y="744" width="228" height="144" as="geometry" />
        </mxCell>
        <mxCell id="qNqzVhPJE8xCvwRogEjn-44" value="+ Hp: float&lt;div&gt;+ Speed:float&lt;/div&gt;&lt;div&gt;+ Bullet: BulletShotBase&lt;/div&gt;" style="text;strokeColor=none;fillColor=none;align=left;verticalAlign=top;spacingLeft=4;spacingRight=4;overflow=hidden;rotatable=0;points=[[0,0.5],[1,0.5]];portConstraint=eastwest;whiteSpace=wrap;html=1;" parent="qNqzVhPJE8xCvwRogEjn-43" vertex="1">
          <mxGeometry y="26" width="228" height="58" as="geometry" />
        </mxCell>
        <mxCell id="qNqzVhPJE8xCvwRogEjn-45" value="" style="line;strokeWidth=1;fillColor=none;align=left;verticalAlign=middle;spacingTop=-1;spacingLeft=3;spacingRight=3;rotatable=0;labelPosition=right;points=[];portConstraint=eastwest;strokeColor=inherit;" parent="qNqzVhPJE8xCvwRogEjn-43" vertex="1">
          <mxGeometry y="84" width="228" height="4" as="geometry" />
        </mxCell>
        <mxCell id="qNqzVhPJE8xCvwRogEjn-46" value="+ Bulletshot(BulletShotBase): void&lt;div&gt;&lt;br&gt;&lt;/div&gt;" style="text;strokeColor=none;fillColor=none;align=left;verticalAlign=top;spacingLeft=4;spacingRight=4;overflow=hidden;rotatable=0;points=[[0,0.5],[1,0.5]];portConstraint=eastwest;whiteSpace=wrap;html=1;" parent="qNqzVhPJE8xCvwRogEjn-43" vertex="1">
          <mxGeometry y="88" width="228" height="56" as="geometry" />
        </mxCell>
        <mxCell id="qNqzVhPJE8xCvwRogEjn-47" value="BossSub" style="swimlane;fontStyle=1;align=center;verticalAlign=top;childLayout=stackLayout;horizontal=1;startSize=26;horizontalStack=0;resizeParent=1;resizeParentMax=0;resizeLast=0;collapsible=1;marginBottom=0;whiteSpace=wrap;html=1;" parent="WIyWlLk6GJQsqaUBKTNV-1" vertex="1">
          <mxGeometry x="996" y="744" width="228" height="144" as="geometry" />
        </mxCell>
        <mxCell id="qNqzVhPJE8xCvwRogEjn-48" value="+ Hp: float&lt;div&gt;+ Speed:float&lt;/div&gt;&lt;div&gt;+ Bullet: BulletShotBase&lt;/div&gt;" style="text;strokeColor=none;fillColor=none;align=left;verticalAlign=top;spacingLeft=4;spacingRight=4;overflow=hidden;rotatable=0;points=[[0,0.5],[1,0.5]];portConstraint=eastwest;whiteSpace=wrap;html=1;" parent="qNqzVhPJE8xCvwRogEjn-47" vertex="1">
          <mxGeometry y="26" width="228" height="58" as="geometry" />
        </mxCell>
        <mxCell id="qNqzVhPJE8xCvwRogEjn-49" value="" style="line;strokeWidth=1;fillColor=none;align=left;verticalAlign=middle;spacingTop=-1;spacingLeft=3;spacingRight=3;rotatable=0;labelPosition=right;points=[];portConstraint=eastwest;strokeColor=inherit;" parent="qNqzVhPJE8xCvwRogEjn-47" vertex="1">
          <mxGeometry y="84" width="228" height="4" as="geometry" />
        </mxCell>
        <mxCell id="qNqzVhPJE8xCvwRogEjn-50" value="+ Bulletshot(BulletShotBase): void&lt;div&gt;&lt;br&gt;&lt;/div&gt;" style="text;strokeColor=none;fillColor=none;align=left;verticalAlign=top;spacingLeft=4;spacingRight=4;overflow=hidden;rotatable=0;points=[[0,0.5],[1,0.5]];portConstraint=eastwest;whiteSpace=wrap;html=1;" parent="qNqzVhPJE8xCvwRogEjn-47" vertex="1">
          <mxGeometry y="88" width="228" height="56" as="geometry" />
        </mxCell>
        <mxCell id="qNqzVhPJE8xCvwRogEjn-51" value="" style="endArrow=classic;html=1;rounded=0;" parent="WIyWlLk6GJQsqaUBKTNV-1" source="qNqzVhPJE8xCvwRogEjn-43" target="qNqzVhPJE8xCvwRogEjn-11" edge="1">
          <mxGeometry width="50" height="50" relative="1" as="geometry">
            <mxPoint x="1272" y="794" as="sourcePoint" />
            <mxPoint x="1322" y="744" as="targetPoint" />
          </mxGeometry>
        </mxCell>
        <mxCell id="qNqzVhPJE8xCvwRogEjn-52" value="" style="endArrow=classic;html=1;rounded=0;" parent="WIyWlLk6GJQsqaUBKTNV-1" source="qNqzVhPJE8xCvwRogEjn-39" target="qNqzVhPJE8xCvwRogEjn-11" edge="1">
          <mxGeometry width="50" height="50" relative="1" as="geometry">
            <mxPoint x="1272" y="794" as="sourcePoint" />
            <mxPoint x="1322" y="744" as="targetPoint" />
          </mxGeometry>
        </mxCell>
        <mxCell id="qNqzVhPJE8xCvwRogEjn-53" value="" style="endArrow=classic;html=1;rounded=0;" parent="WIyWlLk6GJQsqaUBKTNV-1" source="qNqzVhPJE8xCvwRogEjn-47" target="qNqzVhPJE8xCvwRogEjn-11" edge="1">
          <mxGeometry width="50" height="50" relative="1" as="geometry">
            <mxPoint x="1272" y="794" as="sourcePoint" />
            <mxPoint x="1322" y="744" as="targetPoint" />
          </mxGeometry>
        </mxCell>
        <mxCell id="qNqzVhPJE8xCvwRogEjn-54" value="TimeTible" style="swimlane;fontStyle=1;align=center;verticalAlign=top;childLayout=stackLayout;horizontal=1;startSize=26;horizontalStack=0;resizeParent=1;resizeParentMax=0;resizeLast=0;collapsible=1;marginBottom=0;whiteSpace=wrap;html=1;" parent="WIyWlLk6GJQsqaUBKTNV-1" vertex="1">
          <mxGeometry x="1080" y="168" width="228" height="144" as="geometry" />
        </mxCell>
        <mxCell id="qNqzVhPJE8xCvwRogEjn-55" value="+ spownPoints: Transfrom[]&lt;div&gt;+ enemys:EnemyBase[]&lt;/div&gt;&lt;div&gt;+ spownTime:float[]&lt;/div&gt;" style="text;strokeColor=none;fillColor=none;align=left;verticalAlign=top;spacingLeft=4;spacingRight=4;overflow=hidden;rotatable=0;points=[[0,0.5],[1,0.5]];portConstraint=eastwest;whiteSpace=wrap;html=1;" parent="qNqzVhPJE8xCvwRogEjn-54" vertex="1">
          <mxGeometry y="26" width="228" height="58" as="geometry" />
        </mxCell>
        <mxCell id="qNqzVhPJE8xCvwRogEjn-56" value="" style="line;strokeWidth=1;fillColor=none;align=left;verticalAlign=middle;spacingTop=-1;spacingLeft=3;spacingRight=3;rotatable=0;labelPosition=right;points=[];portConstraint=eastwest;strokeColor=inherit;" parent="qNqzVhPJE8xCvwRogEjn-54" vertex="1">
          <mxGeometry y="84" width="228" height="4" as="geometry" />
        </mxCell>
        <mxCell id="qNqzVhPJE8xCvwRogEjn-57" value="&lt;div&gt;+&lt;/div&gt;" style="text;strokeColor=none;fillColor=none;align=left;verticalAlign=top;spacingLeft=4;spacingRight=4;overflow=hidden;rotatable=0;points=[[0,0.5],[1,0.5]];portConstraint=eastwest;whiteSpace=wrap;html=1;" parent="qNqzVhPJE8xCvwRogEjn-54" vertex="1">
          <mxGeometry y="88" width="228" height="56" as="geometry" />
        </mxCell>
        <mxCell id="qNqzVhPJE8xCvwRogEjn-58" value="" style="endArrow=classic;html=1;rounded=0;" parent="WIyWlLk6GJQsqaUBKTNV-1" source="qNqzVhPJE8xCvwRogEjn-54" target="qNqzVhPJE8xCvwRogEjn-35" edge="1">
          <mxGeometry width="50" height="50" relative="1" as="geometry">
            <mxPoint x="1308" y="638" as="sourcePoint" />
            <mxPoint x="1358" y="588" as="targetPoint" />
          </mxGeometry>
        </mxCell>
        <mxCell id="qNqzVhPJE8xCvwRogEjn-59" value="" style="endArrow=classic;html=1;rounded=0;" parent="WIyWlLk6GJQsqaUBKTNV-1" source="qNqzVhPJE8xCvwRogEjn-11" target="qNqzVhPJE8xCvwRogEjn-54" edge="1">
          <mxGeometry width="50" height="50" relative="1" as="geometry">
            <mxPoint x="1284" y="590" as="sourcePoint" />
            <mxPoint x="1334" y="540" as="targetPoint" />
          </mxGeometry>
        </mxCell>
        <mxCell id="qNqzVhPJE8xCvwRogEjn-60" value="GameManager" style="swimlane;fontStyle=1;align=center;verticalAlign=top;childLayout=stackLayout;horizontal=1;startSize=26;horizontalStack=0;resizeParent=1;resizeParentMax=0;resizeLast=0;collapsible=1;marginBottom=0;whiteSpace=wrap;html=1;" parent="WIyWlLk6GJQsqaUBKTNV-1" vertex="1">
          <mxGeometry x="132" y="132" width="228" height="144" as="geometry" />
        </mxCell>
        <mxCell id="qNqzVhPJE8xCvwRogEjn-61" value="+ Targetplayer : Player&lt;div&gt;+ gameState : enum&lt;/div&gt;" style="text;strokeColor=none;fillColor=none;align=left;verticalAlign=top;spacingLeft=4;spacingRight=4;overflow=hidden;rotatable=0;points=[[0,0.5],[1,0.5]];portConstraint=eastwest;whiteSpace=wrap;html=1;" parent="qNqzVhPJE8xCvwRogEjn-60" vertex="1">
          <mxGeometry y="26" width="228" height="58" as="geometry" />
        </mxCell>
        <mxCell id="qNqzVhPJE8xCvwRogEjn-62" value="" style="line;strokeWidth=1;fillColor=none;align=left;verticalAlign=middle;spacingTop=-1;spacingLeft=3;spacingRight=3;rotatable=0;labelPosition=right;points=[];portConstraint=eastwest;strokeColor=inherit;" parent="qNqzVhPJE8xCvwRogEjn-60" vertex="1">
          <mxGeometry y="84" width="228" height="4" as="geometry" />
        </mxCell>
        <mxCell id="qNqzVhPJE8xCvwRogEjn-63" value="+ IsMainGameState():bool&amp;nbsp;&lt;div&gt;&lt;br&gt;&lt;/div&gt;" style="text;strokeColor=none;fillColor=none;align=left;verticalAlign=top;spacingLeft=4;spacingRight=4;overflow=hidden;rotatable=0;points=[[0,0.5],[1,0.5]];portConstraint=eastwest;whiteSpace=wrap;html=1;" parent="qNqzVhPJE8xCvwRogEjn-60" vertex="1">
          <mxGeometry y="88" width="228" height="56" as="geometry" />
        </mxCell>
        <mxCell id="qNqzVhPJE8xCvwRogEjn-64" value="" style="whiteSpace=wrap;html=1;" parent="WIyWlLk6GJQsqaUBKTNV-1" vertex="1">
          <mxGeometry x="1716" y="20" width="1650" height="1048" as="geometry" />
        </mxCell>
        <mxCell id="qNqzVhPJE8xCvwRogEjn-65" value="Player" style="swimlane;fontStyle=1;align=center;verticalAlign=top;childLayout=stackLayout;horizontal=1;startSize=26;horizontalStack=0;resizeParent=1;resizeParentMax=0;resizeLast=0;collapsible=1;marginBottom=0;whiteSpace=wrap;html=1;" parent="WIyWlLk6GJQsqaUBKTNV-1" vertex="1">
          <mxGeometry x="132" y="480" width="228" height="228" as="geometry" />
        </mxCell>
        <mxCell id="qNqzVhPJE8xCvwRogEjn-66" value="+ Hp: int&amp;nbsp;&lt;div&gt;+ AttackInterval : float&lt;br&gt;+ speed :float&lt;/div&gt;&lt;div&gt;+ DamageIntreval: float&lt;br&gt;+ Stok : SuperPower &amp;lt;List&amp;gt;&lt;/div&gt;&lt;div&gt;＋SuperPowerPoint: int&lt;/div&gt;" style="text;strokeColor=none;fillColor=none;align=left;verticalAlign=top;spacingLeft=4;spacingRight=4;overflow=hidden;rotatable=0;points=[[0,0.5],[1,0.5]];portConstraint=eastwest;whiteSpace=wrap;html=1;" parent="qNqzVhPJE8xCvwRogEjn-65" vertex="1">
          <mxGeometry y="26" width="228" height="94" as="geometry" />
        </mxCell>
        <mxCell id="qNqzVhPJE8xCvwRogEjn-67" value="" style="line;strokeWidth=1;fillColor=none;align=left;verticalAlign=middle;spacingTop=-1;spacingLeft=3;spacingRight=3;rotatable=0;labelPosition=right;points=[];portConstraint=eastwest;strokeColor=inherit;" parent="qNqzVhPJE8xCvwRogEjn-65" vertex="1">
          <mxGeometry y="120" width="228" height="4" as="geometry" />
        </mxCell>
        <mxCell id="qNqzVhPJE8xCvwRogEjn-68" value="+ Attack(EnemyBase): void&lt;div&gt;+ Borm(SuperPower) :void&lt;/div&gt;&lt;div&gt;+ TakeDamage() :void&lt;/div&gt;&lt;div&gt;+ IntervalCheck(): void&lt;br&gt;+ GetSuperPower: void&lt;/div&gt;" style="text;strokeColor=none;fillColor=none;align=left;verticalAlign=top;spacingLeft=4;spacingRight=4;overflow=hidden;rotatable=0;points=[[0,0.5],[1,0.5]];portConstraint=eastwest;whiteSpace=wrap;html=1;" parent="qNqzVhPJE8xCvwRogEjn-65" vertex="1">
          <mxGeometry y="124" width="228" height="104" as="geometry" />
        </mxCell>
        <mxCell id="qNqzVhPJE8xCvwRogEjn-69" value="Input" style="swimlane;fontStyle=1;align=center;verticalAlign=top;childLayout=stackLayout;horizontal=1;startSize=26;horizontalStack=0;resizeParent=1;resizeParentMax=0;resizeLast=0;collapsible=1;marginBottom=0;whiteSpace=wrap;html=1;" parent="WIyWlLk6GJQsqaUBKTNV-1" vertex="1">
          <mxGeometry x="468" y="360" width="228" height="144" as="geometry" />
        </mxCell>
        <mxCell id="qNqzVhPJE8xCvwRogEjn-70" value="+&amp;nbsp;" style="text;strokeColor=none;fillColor=none;align=left;verticalAlign=top;spacingLeft=4;spacingRight=4;overflow=hidden;rotatable=0;points=[[0,0.5],[1,0.5]];portConstraint=eastwest;whiteSpace=wrap;html=1;" parent="qNqzVhPJE8xCvwRogEjn-69" vertex="1">
          <mxGeometry y="26" width="228" height="58" as="geometry" />
        </mxCell>
        <mxCell id="qNqzVhPJE8xCvwRogEjn-71" value="" style="line;strokeWidth=1;fillColor=none;align=left;verticalAlign=middle;spacingTop=-1;spacingLeft=3;spacingRight=3;rotatable=0;labelPosition=right;points=[];portConstraint=eastwest;strokeColor=inherit;" parent="qNqzVhPJE8xCvwRogEjn-69" vertex="1">
          <mxGeometry y="84" width="228" height="4" as="geometry" />
        </mxCell>
        <mxCell id="qNqzVhPJE8xCvwRogEjn-72" value="+ Attack(): void&lt;div&gt;+ Move(): void&lt;/div&gt;&lt;div&gt;+ Bomb(): void&lt;/div&gt;" style="text;strokeColor=none;fillColor=none;align=left;verticalAlign=top;spacingLeft=4;spacingRight=4;overflow=hidden;rotatable=0;points=[[0,0.5],[1,0.5]];portConstraint=eastwest;whiteSpace=wrap;html=1;" parent="qNqzVhPJE8xCvwRogEjn-69" vertex="1">
          <mxGeometry y="88" width="228" height="56" as="geometry" />
        </mxCell>
        <mxCell id="qNqzVhPJE8xCvwRogEjn-73" value="" style="endArrow=classic;html=1;rounded=0;" parent="WIyWlLk6GJQsqaUBKTNV-1" source="qNqzVhPJE8xCvwRogEjn-60" target="qNqzVhPJE8xCvwRogEjn-65" edge="1">
          <mxGeometry width="50" height="50" relative="1" as="geometry">
            <mxPoint x="360" y="302" as="sourcePoint" />
            <mxPoint x="410" y="252" as="targetPoint" />
          </mxGeometry>
        </mxCell>
        <mxCell id="qNqzVhPJE8xCvwRogEjn-74" value="" style="endArrow=classic;html=1;rounded=0;" parent="WIyWlLk6GJQsqaUBKTNV-1" source="qNqzVhPJE8xCvwRogEjn-69" target="qNqzVhPJE8xCvwRogEjn-65" edge="1">
          <mxGeometry width="50" height="50" relative="1" as="geometry">
            <mxPoint x="420" y="830" as="sourcePoint" />
            <mxPoint x="470" y="780" as="targetPoint" />
          </mxGeometry>
        </mxCell>
        <mxCell id="qNqzVhPJE8xCvwRogEjn-79" value="SuperPowerBase" style="swimlane;fontStyle=1;align=center;verticalAlign=top;childLayout=stackLayout;horizontal=1;startSize=26;horizontalStack=0;resizeParent=1;resizeParentMax=0;resizeLast=0;collapsible=1;marginBottom=0;whiteSpace=wrap;html=1;" parent="WIyWlLk6GJQsqaUBKTNV-1" vertex="1">
          <mxGeometry x="324" y="780" width="228" height="144" as="geometry" />
        </mxCell>
        <mxCell id="qNqzVhPJE8xCvwRogEjn-80" value="&lt;div&gt;+ Target:GameObject[]&lt;/div&gt;&lt;div&gt;+ Time:float&lt;/div&gt;" style="text;strokeColor=none;fillColor=none;align=left;verticalAlign=top;spacingLeft=4;spacingRight=4;overflow=hidden;rotatable=0;points=[[0,0.5],[1,0.5]];portConstraint=eastwest;whiteSpace=wrap;html=1;" parent="qNqzVhPJE8xCvwRogEjn-79" vertex="1">
          <mxGeometry y="26" width="228" height="58" as="geometry" />
        </mxCell>
        <mxCell id="qNqzVhPJE8xCvwRogEjn-81" value="" style="line;strokeWidth=1;fillColor=none;align=left;verticalAlign=middle;spacingTop=-1;spacingLeft=3;spacingRight=3;rotatable=0;labelPosition=right;points=[];portConstraint=eastwest;strokeColor=inherit;" parent="qNqzVhPJE8xCvwRogEjn-79" vertex="1">
          <mxGeometry y="84" width="228" height="4" as="geometry" />
        </mxCell>
        <mxCell id="qNqzVhPJE8xCvwRogEjn-82" value="&lt;div&gt;+Onfire() void&lt;/div&gt;" style="text;strokeColor=none;fillColor=none;align=left;verticalAlign=top;spacingLeft=4;spacingRight=4;overflow=hidden;rotatable=0;points=[[0,0.5],[1,0.5]];portConstraint=eastwest;whiteSpace=wrap;html=1;" parent="qNqzVhPJE8xCvwRogEjn-79" vertex="1">
          <mxGeometry y="88" width="228" height="56" as="geometry" />
        </mxCell>
        <mxCell id="qNqzVhPJE8xCvwRogEjn-83" value="BulletShotBase" style="swimlane;fontStyle=1;align=center;verticalAlign=top;childLayout=stackLayout;horizontal=1;startSize=26;horizontalStack=0;resizeParent=1;resizeParentMax=0;resizeLast=0;collapsible=1;marginBottom=0;whiteSpace=wrap;html=1;" parent="WIyWlLk6GJQsqaUBKTNV-1" vertex="1">
          <mxGeometry x="1416" y="336" width="228" height="144" as="geometry" />
        </mxCell>
        <mxCell id="qNqzVhPJE8xCvwRogEjn-84" value="&lt;div&gt;+ Bullet:BulletBase[]&lt;/div&gt;&lt;div&gt;+ Time:float&lt;/div&gt;" style="text;strokeColor=none;fillColor=none;align=left;verticalAlign=top;spacingLeft=4;spacingRight=4;overflow=hidden;rotatable=0;points=[[0,0.5],[1,0.5]];portConstraint=eastwest;whiteSpace=wrap;html=1;" parent="qNqzVhPJE8xCvwRogEjn-83" vertex="1">
          <mxGeometry y="26" width="228" height="58" as="geometry" />
        </mxCell>
        <mxCell id="qNqzVhPJE8xCvwRogEjn-85" value="" style="line;strokeWidth=1;fillColor=none;align=left;verticalAlign=middle;spacingTop=-1;spacingLeft=3;spacingRight=3;rotatable=0;labelPosition=right;points=[];portConstraint=eastwest;strokeColor=inherit;" parent="qNqzVhPJE8xCvwRogEjn-83" vertex="1">
          <mxGeometry y="84" width="228" height="4" as="geometry" />
        </mxCell>
        <mxCell id="qNqzVhPJE8xCvwRogEjn-86" value="&lt;div&gt;+Onfire(): void&lt;/div&gt;" style="text;strokeColor=none;fillColor=none;align=left;verticalAlign=top;spacingLeft=4;spacingRight=4;overflow=hidden;rotatable=0;points=[[0,0.5],[1,0.5]];portConstraint=eastwest;whiteSpace=wrap;html=1;" parent="qNqzVhPJE8xCvwRogEjn-83" vertex="1">
          <mxGeometry y="88" width="228" height="56" as="geometry" />
        </mxCell>
        <mxCell id="qNqzVhPJE8xCvwRogEjn-87" value="BulletBase" style="swimlane;fontStyle=1;align=center;verticalAlign=top;childLayout=stackLayout;horizontal=1;startSize=26;horizontalStack=0;resizeParent=1;resizeParentMax=0;resizeLast=0;collapsible=1;marginBottom=0;whiteSpace=wrap;html=1;" parent="WIyWlLk6GJQsqaUBKTNV-1" vertex="1">
          <mxGeometry x="1416" y="528" width="228" height="144" as="geometry" />
        </mxCell>
        <mxCell id="qNqzVhPJE8xCvwRogEjn-88" value="&lt;div&gt;+ Scale: float&lt;/div&gt;&lt;div&gt;+ Time:float&lt;/div&gt;&lt;div&gt;+ Speed: float&lt;/div&gt;" style="text;strokeColor=none;fillColor=none;align=left;verticalAlign=top;spacingLeft=4;spacingRight=4;overflow=hidden;rotatable=0;points=[[0,0.5],[1,0.5]];portConstraint=eastwest;whiteSpace=wrap;html=1;" parent="qNqzVhPJE8xCvwRogEjn-87" vertex="1">
          <mxGeometry y="26" width="228" height="58" as="geometry" />
        </mxCell>
        <mxCell id="qNqzVhPJE8xCvwRogEjn-89" value="" style="line;strokeWidth=1;fillColor=none;align=left;verticalAlign=middle;spacingTop=-1;spacingLeft=3;spacingRight=3;rotatable=0;labelPosition=right;points=[];portConstraint=eastwest;strokeColor=inherit;" parent="qNqzVhPJE8xCvwRogEjn-87" vertex="1">
          <mxGeometry y="84" width="228" height="4" as="geometry" />
        </mxCell>
        <mxCell id="qNqzVhPJE8xCvwRogEjn-90" value="&lt;div&gt;+OnTriggerEnter(Corider): void&lt;/div&gt;&lt;div&gt;+SetScale(float):void&lt;/div&gt;" style="text;strokeColor=none;fillColor=none;align=left;verticalAlign=top;spacingLeft=4;spacingRight=4;overflow=hidden;rotatable=0;points=[[0,0.5],[1,0.5]];portConstraint=eastwest;whiteSpace=wrap;html=1;" parent="qNqzVhPJE8xCvwRogEjn-87" vertex="1">
          <mxGeometry y="88" width="228" height="56" as="geometry" />
        </mxCell>
        <mxCell id="qNqzVhPJE8xCvwRogEjn-91" value="" style="endArrow=classic;html=1;rounded=0;" parent="WIyWlLk6GJQsqaUBKTNV-1" source="qNqzVhPJE8xCvwRogEjn-83" target="qNqzVhPJE8xCvwRogEjn-11" edge="1">
          <mxGeometry width="50" height="50" relative="1" as="geometry">
            <mxPoint x="1800" y="698" as="sourcePoint" />
            <mxPoint x="1850" y="648" as="targetPoint" />
          </mxGeometry>
        </mxCell>
        <mxCell id="qNqzVhPJE8xCvwRogEjn-92" value="" style="endArrow=classic;html=1;rounded=0;" parent="WIyWlLk6GJQsqaUBKTNV-1" source="qNqzVhPJE8xCvwRogEjn-87" target="qNqzVhPJE8xCvwRogEjn-83" edge="1">
          <mxGeometry width="50" height="50" relative="1" as="geometry">
            <mxPoint x="1800" y="806" as="sourcePoint" />
            <mxPoint x="1850" y="756" as="targetPoint" />
          </mxGeometry>
        </mxCell>
        <mxCell id="jgO_pRS54x03snPmvHFi-0" value="PlayerDamegeArea" style="swimlane;fontStyle=1;align=center;verticalAlign=top;childLayout=stackLayout;horizontal=1;startSize=26;horizontalStack=0;resizeParent=1;resizeParentMax=0;resizeLast=0;collapsible=1;marginBottom=0;whiteSpace=wrap;html=1;" parent="WIyWlLk6GJQsqaUBKTNV-1" vertex="1">
          <mxGeometry x="468" y="528" width="228" height="228" as="geometry" />
        </mxCell>
        <mxCell id="jgO_pRS54x03snPmvHFi-1" value="+&amp;nbsp;" style="text;strokeColor=none;fillColor=none;align=left;verticalAlign=top;spacingLeft=4;spacingRight=4;overflow=hidden;rotatable=0;points=[[0,0.5],[1,0.5]];portConstraint=eastwest;whiteSpace=wrap;html=1;" parent="jgO_pRS54x03snPmvHFi-0" vertex="1">
          <mxGeometry y="26" width="228" height="94" as="geometry" />
        </mxCell>
        <mxCell id="jgO_pRS54x03snPmvHFi-2" value="" style="line;strokeWidth=1;fillColor=none;align=left;verticalAlign=middle;spacingTop=-1;spacingLeft=3;spacingRight=3;rotatable=0;labelPosition=right;points=[];portConstraint=eastwest;strokeColor=inherit;" parent="jgO_pRS54x03snPmvHFi-0" vertex="1">
          <mxGeometry y="120" width="228" height="4" as="geometry" />
        </mxCell>
        <mxCell id="jgO_pRS54x03snPmvHFi-3" value="&lt;div&gt;+ TakeDamage() :void&lt;/div&gt;&lt;div&gt;&lt;br&gt;&lt;/div&gt;" style="text;strokeColor=none;fillColor=none;align=left;verticalAlign=top;spacingLeft=4;spacingRight=4;overflow=hidden;rotatable=0;points=[[0,0.5],[1,0.5]];portConstraint=eastwest;whiteSpace=wrap;html=1;" parent="jgO_pRS54x03snPmvHFi-0" vertex="1">
          <mxGeometry y="124" width="228" height="104" as="geometry" />
        </mxCell>
        <mxCell id="jgO_pRS54x03snPmvHFi-4" value="" style="endArrow=classic;html=1;rounded=0;" parent="WIyWlLk6GJQsqaUBKTNV-1" source="jgO_pRS54x03snPmvHFi-0" target="qNqzVhPJE8xCvwRogEjn-65" edge="1">
          <mxGeometry width="50" height="50" relative="1" as="geometry">
            <mxPoint x="468" y="782" as="sourcePoint" />
            <mxPoint x="518" y="732" as="targetPoint" />
          </mxGeometry>
        </mxCell>
        <mxCell id="fqdL0CX_6p2bb9C9uIoB-1" value="" style="endArrow=classic;html=1;rounded=0;" edge="1" parent="WIyWlLk6GJQsqaUBKTNV-1" source="qNqzVhPJE8xCvwRogEjn-79" target="qNqzVhPJE8xCvwRogEjn-65">
          <mxGeometry width="50" height="50" relative="1" as="geometry">
            <mxPoint x="864" y="578" as="sourcePoint" />
            <mxPoint x="914" y="528" as="targetPoint" />
          </mxGeometry>
        </mxCell>
      </root>
    </mxGraphModel>
  </diagram>
</mxfile>
